<!-- icon666.com - MILLIONS vector ICONS FREE --><svg fill="none" viewBox="0 0 24 24" xmlns="http://www.w3.org/2000/svg"><path clip-rule="evenodd" d="m2.46967 2.46967c.29289-.29289.76777-.29289 1.06066 0l17.99997 18.00003c.2929.2929.2929.7677 0 1.0606s-.7677.2929-1.0606 0l-18.00003-17.99997c-.29289-.29289-.29289-.76777 0-1.06066zm9.53033 3.28033c-.3117 0-.6159.01838-.9128.05313-.3122.03655-.6167.09127-.9134.16196-.40289.09601-.80736-.1528-.90337-.55573s.15279-.80741.55573-.90342c.35214-.0839.71444-.14906 1.08664-.19263.3539-.04144.7164-.06331 1.0872-.06331 3.4703 0 6.1522 1.90805 7.9236 3.72669.8916.91532 1.5729 1.8281 2.0316 2.51171.2298.3424.4049.6292.5236.8324.0595.1017.1049.1826.136.2393.0156.0283.0277.0506.0361.0665l.01.0188.003.0057.001.0019c.0002.0003.0007.0013-.6649.347.6656.3457.6655.3458.6654.346l-.0012.0023-.0024.0046-.0078.0148c-.0066.0124-.0159.0297-.0279.0517-.0241.044-.0589.1068-.1045.1861-.0911.1584-.2252.3829-.4011.6552-.3514.5437-.8726 1.282-1.555 2.0654-.2721.3123-.7458.345-1.0581.0729-.3124-.2721-.345-.7458-.0729-1.0582.6257-.7183 1.1046-1.3967 1.4262-1.8943.112-.1733.2046-.3242.2773-.4465-.1033-.1737-.2465-.4047-.4284-.6759-.422-.6289-1.0475-1.46611-1.8605-2.30079-1.6377-1.68136-3.9558-3.27331-6.8491-3.27331zm10 6.25.6654.346c.1126-.2168.1127-.475.0002-.6917zm-17.35288-3.55893c.30868.2762.33502.75035.05882 1.05903-.29441.32904-.55884.6523-.7923.9565-.41486.5406-.73021 1.0191-.94067 1.3602-.04104.0666-.07805.1278-.11098.1832.10328.1737.24649.4047.42841.6759.42201.6289 1.0475 1.4661 1.8605 2.3008 1.63768 1.6813 3.95581 3.2733 6.8491 3.2733.3117 0 .6159-.0184.9128-.0531.4114-.0482.784.2463.8321.6577.0482.4114-.2463.7839-.6577.8321-.3539.0414-.7164.0633-1.0872.0633-3.47035 0-6.15222-1.908-7.92362-3.7267-.89155-.9153-1.57288-1.8281-2.03156-2.5117-.22979-.3424-.4049-.6292-.52367-.8324-.05941-.1017-.10481-.1826-.13598-.2393-.01559-.0283-.02763-.0506-.03609-.0665l-.01-.0188-.00299-.0057-.00099-.0019c-.00015-.0003-.00065-.0013.6649-.347-.66555-.3457-.66551-.3458-.66546-.3459l.00092-.0018.00169-.0032.00539-.0102.01881-.0352c.01609-.0297.03929-.0721.06953-.1257.06045-.1073.14914-.2601.26545-.4487.23243-.3767.57639-.8983 1.0273-1.48589.25396-.33094.54237-.68353.86446-1.04351.2762-.30869.75034-.33502 1.05903-.05883zm-2.64712 3.55893-.66546-.3459c-.1126.2167-.11269.4749-.00009.6916zm9.25-3c0-.41421.3358-.75.75-.75.437 0 .858.07505 1.2499.21358 1.0661.37679 1.9097 1.22043 2.2865 2.28652.1386.3919.2136.8129.2136 1.2499 0 .4142-.3358.75-.75.75s-.75-.3358-.75-.75c0-.2643-.0453-.5164-.1278-.7501-.2258-.6387-.7334-1.1463-1.3721-1.37206-.2337-.08258-.4858-.12784-.7501-.12784-.4142 0-.75-.33579-.75-.75zm-2.33262 2.7603c.40851-.0685.79522.2071.86376.6156.02162.1289.05418.2539.09669.3742.22577.6387.73337 1.1463 1.37207 1.3721.2337.0825.4858.1278.7501.1278.4142 0 .75.3358.75.75s-.3358.75-.75.75c-.437 0-.858-.075-1.2499-.2136-1.06609-.3768-1.90973-1.2204-2.28653-2.2865-.07117-.2013-.12564-.4105-.16176-.6258-.06853-.4085.20707-.7952.61557-.8638z" fill="rgb(0,0,0)" fill-rule="evenodd"></path></svg>