<svg width="22" height="22" viewBox="0 0 22 22" fill="none" xmlns="http://www.w3.org/2000/svg">
    <path d="M0.5 2.83333C0.5 2.21449 0.74583 1.621 1.18342 1.18342C1.621 0.74583 2.21449 0.5 2.83333 0.5H19.1667C19.7855 0.5 20.379 0.74583 20.8166 1.18342C21.2542 1.621 21.5 2.21449 21.5 2.83333V19.1667C21.5 19.7855 21.2542 20.379 20.8166 20.8166C20.379 21.2542 19.7855 21.5 19.1667 21.5H2.83333C2.21449 21.5 1.621 21.2542 1.18342 20.8166C0.74583 20.379 0.5 19.7855 0.5 19.1667V2.83333Z" stroke="black" stroke-linecap="round" stroke-linejoin="round"/>
    <path d="M7.5 9.8334L11 13.3334L14.5 9.8334" stroke="black" stroke-linecap="round" stroke-linejoin="round"/>
</svg>
